<!-- icon666.com - MILLIONS vector ICONS FREE --><svg viewBox="0 -9 486.24685 486" xmlns="http://www.w3.org/2000/svg"><path d="m470.671875 408.382812c12.289063 11.605469 12.84375 30.972657 1.238281 43.261719-.398437.417969-.808594.839844-1.238281 1.238281l-.03125.019532c-12.988281 12.289062-33.3125 12.289062-46.300781 0l-81.628906-78.449219 46.328124-44.53125zm0 0" fill="#f8ec7d" style="fill: rgb(237, 237, 12);"></path><path d="m193.769531 6.125c103.710938 0 187.78125 80.796875 187.78125 180.457031 0 99.660157-84.070312 180.472657-187.78125 180.472657-103.710937 0-187.769531-80.800782-187.769531-180.472657 0-99.667969 84.070312-180.457031 187.769531-180.457031zm120 269.707031v-109.648437l-65.730469 36.070312v-35c0-5.523437-4.476562-10-10-10h-154.269531c-5.523437 0-10 4.476563-10 10v107.5c0 5.523438 4.476563 10 10 10h154.269531c5.523438 0 10-4.476562 10-10v-34.878906h.199219zm-92.859375-161.328125c0-14.410156-11.679687-26.089844-26.089844-26.089844-14.410156 0-26.089843 11.679688-26.089843 26.089844s11.679687 26.089844 26.089843 26.089844c14.410157.003906 26.09375-11.679688 26.089844-26.089844zm-67.832031 0c0-14.40625-11.683594-26.082031-26.089844-26.082031-14.40625.003906-26.082031 11.683594-26.078125 26.089844s11.683594 26.085937 26.089844 26.082031c14.40625 0 26.085938-11.683594 26.078125-26.089844zm0 0" fill="#6fe3ff" style="fill: rgb(7, 195, 242);"></path><path d="m313.769531 166.183594v109.648437l-65.53125-35.957031h-.199219v-37.621094zm0 0" fill="#cc7350"></path><path d="m248.039062 239.875v34.878906c0 5.523438-4.476562 10-10 10h-154.269531c-5.523437 0-10-4.476562-10-10v-107.5c0-5.523437 4.476563-10 10-10h154.269531c5.523438 0 10 4.476563 10 10zm0 0" fill="#e48e66"></path><path d="m194.820312 88.421875c14.40625.003906 26.082032 11.683594 26.078126 26.089844 0 14.40625-11.683594 26.085937-26.089844 26.082031s-26.082032-11.683594-26.078125-26.089844c0-14.40625 11.683593-26.085937 26.089843-26.082031zm0 0" fill="#f8ec7d" style="fill: rgb(237, 237, 12);"></path><path d="m127 88.421875c14.40625.003906 26.082031 11.683594 26.078125 26.089844 0 14.40625-11.683594 26.085937-26.089844 26.082031s-26.082031-11.683594-26.078125-26.089844c0-14.410156 11.683594-26.085937 26.089844-26.082031zm0 0" fill="#f8ec7d" style="fill: rgb(237, 237, 12);"></path><g fill="#63316d"><path d="m193.769531 373.054688c48.972657.167968 96.257813-17.894532 132.648438-50.671876l30.898437 29.699219-18.765625 18.042969c-1.175781 1.128906-1.839843 2.691406-1.839843 4.324219 0 1.632812.664062 3.195312 1.839843 4.328125l81.664063 78.480468c15.230468 14.40625 39.039062 14.484376 54.363281.171876.0625-.050782.121094-.101563.179687-.160157.515626-.480469 1.011719-.984375 1.515626-1.511719 13.84375-14.6875 13.195312-37.808593-1.445313-51.699218l-81.632813-78.460938c-2.320312-2.234375-5.992187-2.234375-8.3125 0l-18.902343 18.164063-30.914063-29.710938c32.527344-33.367187 52.484375-78.214843 52.484375-127.46875 0-102.8125-86.929687-186.457031-193.78125-186.457031-106.847656 0-193.769531 83.644531-193.769531 186.457031 0 102.816407 86.929688 186.472657 193.769531 186.472657zm195.269531-34.808594 77.511719 74.5c9.859375 9.324218 10.3125 24.867187 1.015625 34.753906-.273437.289062-.550781.578125-.839844.851562-.074218.0625-.144531.128907-.210937.195313-10.660156 10.089844-27.34375 10.101563-38.019531.03125l-77.128906-74.125zm-195.269531-326.121094c100.234375 0 181.78125 78.261719 181.78125 174.457031 0 96.199219-81.546875 174.472657-181.78125 174.472657s-181.769531-78.269532-181.769531-174.472657 81.539062-174.457031 181.769531-174.457031zm0 0" fill="#63316d" style="fill: rgb(207, 21, 244);"></path><path d="m83.769531 290.753906h154.269531c8.832032-.011718 15.992188-7.167968 16-16v-24.851562l56.84375 31.191406c1.859376 1.019531 4.117188.984375 5.941407-.097656 1.828125-1.078125 2.945312-3.042969 2.945312-5.164063v-109.648437c0-2.121094-1.117187-4.082032-2.945312-5.164063-1.824219-1.078125-4.082031-1.117187-5.941407-.097656l-56.84375 31.195313v-24.863282c-.007812-8.832031-7.167968-15.988281-16-16h-154.269531c-8.832031.007813-15.988281 7.167969-16 16v107.5c.011719 8.832032 7.167969 15.988282 16 16zm170.269531-84.949218 53.730469-29.480469v89.375l-53.730469-29.484375zm-174.269531-38.550782c0-2.210937 1.792969-4 4-4h154.269531c2.210938 0 4 1.789063 4 4v107.5c0 2.207032-1.789062 4-4 4h-154.269531c-2.207031 0-4-1.792968-4-4zm0 0" fill="#63316d" style="fill: rgb(207, 21, 244);"></path><path d="m194.820312 146.59375c17.71875-.003906 32.082032-14.367188 32.078126-32.085938 0-17.71875-14.363282-32.082031-32.082032-32.085937-17.71875 0-32.082031 14.363281-32.085937 32.082031.019531 17.714844 14.375 32.070313 32.089843 32.089844zm0-52.171875c11.09375.003906 20.082032 9 20.078126 20.089844 0 11.09375-8.996094 20.085937-20.089844 20.082031-11.089844-.003906-20.082032-8.996094-20.078125-20.089844.015625-11.085937 9.003906-20.070312 20.089843-20.082031zm0 0" fill="#63316d" style="fill: rgb(207, 21, 244);"></path><path d="m127 146.59375c17.71875-.003906 32.082031-14.367188 32.078125-32.085938 0-17.71875-14.363281-32.082031-32.082031-32.085937-17.71875 0-32.082032 14.363281-32.085938 32.082031.015625 17.714844 14.375 32.074219 32.089844 32.089844zm0-52.171875c11.09375.003906 20.082031 9 20.078125 20.089844 0 11.09375-8.996094 20.085937-20.089844 20.082031-11.089843-.003906-20.082031-8.996094-20.078125-20.089844.011719-11.089844 9-20.074218 20.089844-20.082031zm0 0" fill="#63316d" style="fill: rgb(207, 21, 244);"></path></g></svg>